<svg xmlns="http://www.w3.org/2000/svg" width="64" height="57" viewBox="0 0 64 57">
    <path fill="#366ED8" d="M60.16 0H39.671c-3.145-.004-6.061 1.644-7.68 4.34C30.371 1.65 27.461.002 24.32 0H3.84C1.72 0 0 1.72 0 3.84v46.08c.004 3.533 2.867 6.396 6.4 6.4h51.2c3.533-.004 6.396-2.867 6.4-6.4V3.84C64 1.72 62.28 0 60.16 0zM33.28 8.96c-.003-1.697.669-3.325 1.868-4.526 1.199-1.2 2.826-1.875 4.523-1.874H60.16c.707 0 1.28.573 1.28 1.28V44.8c0 .707-.573 1.28-1.28 1.28H39.67c-2.377-.006-4.658.94-6.334 2.625-.019.02-.036.044-.056.064V8.96zM2.56 3.84c0-.707.573-1.28 1.28-1.28h20.48c3.53.004 6.392 2.862 6.4 6.392V48.79c-1.68-1.731-3.988-2.709-6.4-2.71H3.84c-.707 0-1.28-.573-1.28-1.28V3.84zm0 46.08v-1.516c.41.152.843.232 1.28.236h20.48c3.04.003 5.66 2.142 6.272 5.12H6.4c-2.12 0-3.84-1.72-3.84-3.84zm55.04 3.84H33.408c.605-2.979 3.223-5.12 6.263-5.12H60.16c.437-.004.87-.084 1.28-.236v1.516c0 1.018-.405 1.995-1.125 2.715-.72.72-1.697 1.125-2.715 1.125zM7.68 12.8c0-.707.573-1.28 1.28-1.28h15.36c.707 0 1.28.573 1.28 1.28 0 .707-.573 1.28-1.28 1.28H8.96c-.707 0-1.28-.573-1.28-1.28zm0 23.04c0-.707.573-1.28 1.28-1.28h15.36c.707 0 1.28.573 1.28 1.28 0 .707-.573 1.28-1.28 1.28H8.96c-.707 0-1.28-.573-1.28-1.28zm0-7.68c0-.707.573-1.28 1.28-1.28h15.36c.707 0 1.28.573 1.28 1.28 0 .707-.573 1.28-1.28 1.28H8.96c-.707 0-1.28-.573-1.28-1.28zm0-7.68c0-.707.573-1.28 1.28-1.28h15.36c.707 0 1.28.573 1.28 1.28 0 .707-.573 1.28-1.28 1.28H8.96c-.707 0-1.28-.573-1.28-1.28zM38.4 12.8c0-.707.573-1.28 1.28-1.28h15.36c.707 0 1.28.573 1.28 1.28 0 .707-.573 1.28-1.28 1.28H39.68c-.707 0-1.28-.573-1.28-1.28zm0 23.04c0-.707.573-1.28 1.28-1.28h15.36c.707 0 1.28.573 1.28 1.28 0 .707-.573 1.28-1.28 1.28H39.68c-.707 0-1.28-.573-1.28-1.28zm0-7.68c0-.707.573-1.28 1.28-1.28h15.36c.707 0 1.28.573 1.28 1.28 0 .707-.573 1.28-1.28 1.28H39.68c-.707 0-1.28-.573-1.28-1.28zm0-7.68c0-.707.573-1.28 1.28-1.28h15.36c.707 0 1.28.573 1.28 1.28 0 .707-.573 1.28-1.28 1.28H39.68c-.707 0-1.28-.573-1.28-1.28z"/>
</svg>
